<svg xmlns="http://www.w3.org/2000/svg" xmlns:xlink="http://www.w3.org/1999/xlink" width="406" zoomAndPan="magnify" viewBox="0 0 304.5 229.499994" height="306" preserveAspectRatio="xMidYMid meet" version="1.0"><defs><clipPath id="e33d646e65"><path d="M 2.511719 107.378906 L 302.351562 107.378906 L 302.351562 204.542969 L 2.511719 204.542969 Z M 2.511719 107.378906 " clip-rule="nonzero"/></clipPath><clipPath id="4e86498d16"><path d="M 49 0.132812 L 255.363281 0.132812 L 255.363281 229 L 49 229 Z M 49 0.132812 " clip-rule="nonzero"/></clipPath></defs><path fill="#38b6ff" d="M 243.296875 200.832031 C 243.757812 203.21875 246.050781 198.632812 249.035156 191.070312 C 248.804688 192.8125 248.207031 193.082031 247.976562 195.425781 C 247.839844 196.886719 247.425781 200.785156 249.355469 201.84375 C 250.730469 202.617188 252.660156 201.613281 253.394531 201.195312 C 254.769531 202.113281 258.625 204.449219 263.949219 204.269531 C 267.574219 204.132812 270.324219 202.894531 271.792969 202.070312 C 272.34375 202.570312 275.417969 205.230469 279.871094 204.863281 C 285.46875 204.449219 288.316406 199.636719 288.496094 199.230469 C 290.882812 200.28125 293.683594 199.957031 295.75 198.355469 C 298.867188 195.972656 298.59375 192.167969 298.59375 191.9375 C 298.042969 191.113281 296.34375 188.867188 293.222656 187.8125 C 288.679688 186.300781 284.78125 188.59375 284.183594 188.957031 C 283.082031 188.460938 280.878906 187.632812 278.035156 187.773438 C 275.234375 187.90625 273.125 188.867188 272.070312 189.417969 C 271.152344 189.007812 269.40625 188.320312 267.160156 188.410156 C 265.597656 188.460938 264.3125 188.867188 263.488281 189.1875 C 264.589844 188.179688 266.148438 186.488281 267.113281 184.054688 C 269.132812 178.785156 266.195312 175.625 267.617188 170.398438 C 268.902344 165.636719 271.933594 166.363281 274.089844 161.417969 C 276.933594 154.863281 275.464844 144.550781 269.316406 141.523438 C 268.308594 141.023438 267.25 140.742188 266.242188 140.65625 L 270.785156 125.441406 C 271.105469 123.648438 271.703125 119.117188 269.132812 114.761719 C 268.582031 113.84375 266.058594 109.578125 263.167969 109.859375 C 260.78125 110.085938 259.222656 113.296875 257.660156 117.511719 C 253.300781 129.148438 252.382812 138.730469 252.382812 138.730469 C 250.914062 154.035156 247.75 152.980469 244.949219 170.675781 C 243.847656 177.6875 240.820312 188.179688 243.296875 200.832031 Z M 61.621094 201.519531 C 61.164062 203.90625 58.867188 199.320312 55.886719 191.757812 C 56.117188 193.5 56.710938 193.769531 56.941406 196.113281 C 57.078125 197.574219 57.492188 201.472656 55.566406 202.53125 C 54.1875 203.304688 52.261719 202.300781 51.527344 201.882812 C 50.148438 202.800781 46.292969 205.136719 40.96875 204.957031 C 37.34375 204.820312 34.59375 203.582031 33.125 202.757812 C 32.574219 203.257812 29.496094 205.917969 25.046875 205.550781 C 19.449219 205.136719 16.605469 200.324219 16.417969 199.917969 C 14.03125 200.964844 11.234375 200.644531 9.171875 199.042969 C 6.050781 196.660156 6.324219 192.855469 6.324219 192.625 C 6.875 191.800781 8.574219 189.554688 11.695312 188.5 C 16.234375 186.988281 20.136719 189.28125 20.734375 189.644531 C 21.835938 189.148438 24.039062 188.320312 26.882812 188.460938 C 29.683594 188.59375 31.792969 189.554688 32.847656 190.105469 C 33.765625 189.695312 35.507812 189.007812 37.757812 189.097656 C 39.320312 189.148438 40.605469 189.554688 41.429688 189.875 C 40.328125 188.867188 38.769531 187.175781 37.804688 184.742188 C 35.785156 179.472656 38.722656 176.3125 37.296875 171.085938 C 36.015625 166.324219 32.984375 167.050781 30.828125 162.105469 C 27.984375 155.550781 29.453125 145.238281 35.601562 142.210938 C 36.609375 141.710938 37.664062 141.429688 38.675781 141.34375 L 34.132812 126.128906 C 33.8125 124.335938 33.214844 119.804688 35.785156 115.449219 C 36.335938 114.53125 38.859375 110.265625 41.75 110.546875 C 44.136719 110.773438 45.695312 113.984375 47.257812 118.199219 C 51.617188 129.835938 52.535156 139.417969 52.535156 139.417969 C 54.003906 154.722656 57.171875 153.667969 59.96875 171.363281 C 61.117188 178.375 64.144531 188.917969 61.621094 201.519531 " fill-opacity="1" fill-rule="nonzero"/><g clip-path="url(#e33d646e65)"><path fill="#0f0e0c" d="M 298.960938 196.660156 C 298.316406 197.117188 297.628906 197.488281 296.894531 197.71875 L 291.433594 191.480469 C 294.875 190.980469 298.316406 190.523438 301.714844 190.105469 C 302.265625 192.304688 301.117188 195.054688 298.960938 196.660156 Z M 291.710938 197.347656 C 291.664062 197.300781 291.574219 197.300781 291.527344 197.347656 C 291.480469 197.394531 291.390625 197.4375 291.390625 197.488281 C 291.023438 198.355469 290.515625 199.132812 289.921875 199.820312 C 289.460938 200.375 288.910156 200.832031 288.359375 201.195312 L 280.054688 193.222656 C 283.632812 192.625 287.214844 192.125 290.839844 191.570312 L 296.34375 197.855469 C 294.832031 198.175781 293.179688 198.035156 291.710938 197.347656 Z M 281.613281 202.894531 C 278.265625 202.707031 275.832031 201.0625 274.683594 200.097656 C 274.640625 200.050781 274.59375 200.050781 274.5 200.050781 C 274.457031 200.050781 274.410156 200.050781 274.363281 200.097656 C 273.90625 200.375 273.308594 200.738281 272.527344 201.0625 L 267.664062 195.375 C 270.003906 194.96875 272.390625 194.507812 274.730469 194.136719 C 276.246094 193.863281 277.804688 193.632812 279.320312 193.363281 L 287.808594 201.519531 C 285.378906 202.9375 282.578125 202.9375 281.613281 202.894531 Z M 265.964844 202.019531 C 264.085938 201.792969 262.339844 201.195312 260.644531 200.144531 C 260.046875 199.917969 258.164062 199.09375 257.476562 197.300781 C 260.6875 196.660156 263.902344 196.023438 267.113281 195.425781 L 272.023438 201.195312 C 270.464844 201.84375 268.351562 202.339844 265.964844 202.019531 Z M 253.027344 200.832031 L 258.578125 181.71875 L 271.058594 176.261719 C 271.199219 177.917969 271.105469 179.65625 270.28125 181.71875 C 269.453125 183.875 268.03125 185.84375 266.148438 187.582031 C 263.625 188 260.734375 189.007812 258.714844 191.480469 C 257.980469 192.355469 256.101562 194.648438 256.878906 197.207031 C 257.109375 197.988281 257.523438 198.582031 258.027344 199.09375 C 256.46875 200.695312 254.496094 201.195312 253.027344 200.832031 Z M 252.566406 200.644531 C 252.382812 200.554688 252.152344 200.46875 252.015625 200.324219 C 250.914062 199.5 250.730469 197.945312 250.683594 197.4375 C 250.457031 195.5625 251.097656 194.09375 251.648438 192.945312 C 251.742188 192.71875 251.832031 192.488281 251.925781 192.304688 C 252.84375 190.15625 252.476562 188.59375 252.015625 186.667969 C 251.695312 185.292969 251.328125 183.78125 251.28125 181.585938 C 251.234375 180.300781 251.328125 179.382812 251.511719 178.46875 L 257.339844 184.285156 Z M 250.546875 194.136719 L 248.207031 199.230469 C 247.75 199.78125 246.96875 200.417969 246.507812 200.417969 C 248.253906 185.480469 250.914062 170.488281 254.402344 155.824219 C 257.890625 141.292969 262.296875 126.816406 267.480469 112.785156 C 267.527344 112.648438 267.480469 112.511719 267.34375 112.46875 C 267.207031 112.417969 267.066406 112.46875 267.023438 112.609375 C 261.835938 126.628906 257.429688 141.15625 253.945312 155.730469 C 250.457031 170.21875 247.839844 185.0625 246.097656 199.917969 C 246.050781 199.6875 246.003906 199.320312 246.050781 198.769531 C 246.875 177.59375 247.335938 166.960938 249.585938 158.574219 C 250.042969 156.835938 250.363281 155.730469 250.777344 154.40625 C 251.28125 152.660156 251.878906 150.738281 252.933594 146.792969 C 253.621094 144.230469 254.21875 142.210938 254.679688 140.605469 C 255.640625 137.261719 256.238281 135.242188 256.605469 132.675781 C 256.925781 130.203125 260.6875 111.09375 265.371094 108.386719 C 265.921875 108.066406 266.472656 108.023438 267.023438 108.253906 C 272.34375 110.40625 273.675781 117.96875 272.300781 122.410156 C 271.058594 126.449219 268.8125 136.390625 268.445312 137.90625 C 264.039062 138.085938 259.496094 141.15625 257.660156 144.691406 C 256.835938 146.242188 256.789062 147.34375 256.652344 149.59375 C 256.558594 151.425781 256.421875 153.988281 255.777344 158.113281 C 255.367188 160.679688 255 162.46875 254.539062 164.757812 C 253.347656 170.535156 252.382812 173.605469 251.785156 175.667969 C 251.050781 178.007812 250.683594 179.15625 250.777344 181.675781 C 250.867188 183.875 251.234375 185.519531 251.558594 186.855469 C 252.015625 188.78125 252.335938 190.195312 251.464844 192.167969 C 251.375 192.355469 251.28125 192.585938 251.191406 192.8125 C 250.960938 193.132812 250.730469 193.632812 250.546875 194.136719 Z M 271.519531 138.773438 C 277.394531 140.742188 279.734375 149.773438 277.851562 156.238281 C 277.070312 158.898438 275.832031 160.085938 274.5 161.367188 C 273.859375 162.011719 273.21875 162.605469 272.621094 163.429688 L 263.582031 164.261719 L 269.269531 144.691406 C 269.316406 144.550781 269.226562 144.410156 269.085938 144.363281 C 268.949219 144.324219 268.8125 144.410156 268.765625 144.550781 L 266.65625 151.792969 L 258.808594 143.675781 C 261.515625 140.054688 267.113281 137.304688 271.519531 138.773438 Z M 254.722656 166.273438 C 254.816406 165.8125 254.90625 165.3125 255.046875 164.804688 C 255.503906 162.515625 255.871094 160.730469 256.285156 158.160156 C 256.925781 153.988281 257.0625 151.425781 257.15625 149.59375 C 257.292969 147.441406 257.339844 146.335938 258.074219 144.917969 C 258.210938 144.640625 258.394531 144.363281 258.578125 144.09375 L 266.5625 152.34375 L 263.074219 164.488281 L 260.828125 172.320312 Z M 260.597656 172.875 L 257.476562 183.738281 L 251.601562 177.867188 C 251.742188 177.230469 251.96875 176.585938 252.246094 175.757812 C 252.796875 173.972656 253.621094 171.40625 254.585938 166.867188 Z M 270.921875 167.1875 C 270.234375 169.898438 270.507812 172.050781 270.785156 174.113281 C 270.875 174.660156 270.921875 175.167969 270.96875 175.667969 L 258.714844 181.03125 L 263.441406 164.757812 L 272.253906 163.9375 C 271.75 164.804688 271.289062 165.863281 270.921875 167.1875 Z M 259.910156 196.292969 C 259.039062 196.480469 258.210938 196.613281 257.339844 196.800781 C 256.835938 194.597656 258.488281 192.535156 259.128906 191.757812 C 260.78125 189.785156 263.074219 188.78125 265.230469 188.269531 Z M 270.324219 187.722656 C 272.117188 187.722656 273.953125 187.90625 275.695312 188.363281 C 275.785156 188.363281 275.878906 188.363281 275.925781 188.320312 C 276.382812 187.863281 277.164062 187.261719 278.21875 186.757812 L 273.492188 193.730469 C 271.382812 194.09375 269.226562 194.457031 267.066406 194.875 L 267.023438 194.875 C 264.820312 195.285156 262.664062 195.695312 260.503906 196.113281 L 265.828125 188.09375 C 267.757812 187.773438 269.410156 187.773438 270.324219 187.722656 Z M 279.136719 186.488281 C 279.734375 186.300781 280.328125 186.167969 281.0625 186.070312 C 283.449219 185.886719 285.285156 186.757812 286.203125 187.3125 C 286.296875 187.355469 286.386719 187.355469 286.433594 187.3125 C 287.488281 186.804688 288.589844 186.398438 289.691406 186.167969 L 286.113281 191.707031 C 282.304688 192.304688 278.496094 192.90625 274.683594 193.542969 C 274.546875 193.59375 274.410156 193.59375 274.273438 193.632812 Z M 290.378906 186.070312 C 291.34375 185.886719 292.261719 185.84375 293.226562 185.886719 C 298.914062 186.167969 300.886719 188.042969 301.53125 189.644531 C 297.996094 190.105469 294.464844 190.5625 290.929688 191.070312 L 290.792969 191.070312 C 289.460938 191.25 288.132812 191.4375 286.753906 191.667969 Z M 302.082031 189.605469 C 301.164062 186.988281 298.179688 185.570312 293.226562 185.34375 C 292.214844 185.292969 291.207031 185.382812 290.195312 185.570312 L 290.105469 185.570312 C 288.820312 185.800781 287.488281 186.207031 286.296875 186.804688 C 285.332031 186.207031 283.40625 185.34375 280.972656 185.570312 C 280.191406 185.613281 279.503906 185.800781 278.90625 185.980469 L 278.863281 185.980469 C 277.394531 186.488281 276.335938 187.261719 275.695312 187.8125 C 273.953125 187.355469 272.117188 187.175781 270.324219 187.175781 C 269.59375 187.175781 268.398438 187.175781 267.023438 187.355469 C 268.71875 185.710938 269.957031 183.824219 270.738281 181.8125 C 271.609375 179.523438 271.65625 177.59375 271.519531 175.804688 C 271.472656 175.210938 271.382812 174.613281 271.289062 174.023438 C 271.015625 172 270.738281 169.898438 271.382812 167.28125 C 271.75 165.773438 272.300781 164.667969 272.941406 163.800781 C 273.539062 162.972656 274.179688 162.375 274.824219 161.6875 C 276.152344 160.40625 277.484375 159.128906 278.3125 156.328125 C 280.007812 150.460938 278.265625 140.515625 271.609375 138.273438 C 270.738281 137.949219 269.773438 137.816406 268.859375 137.816406 C 269.269531 135.929688 271.425781 126.398438 272.667969 122.460938 C 274.042969 117.917969 272.894531 110.035156 267.066406 107.65625 C 266.378906 107.378906 265.644531 107.429688 264.957031 107.835938 C 260 110.679688 256.285156 129.886719 255.917969 132.542969 C 255.59375 135.066406 255 137.078125 254.035156 140.378906 C 253.578125 141.980469 252.980469 144.042969 252.292969 146.566406 C 251.234375 150.460938 250.640625 152.429688 250.136719 154.175781 C 249.769531 155.5 249.402344 156.648438 248.941406 158.34375 C 246.648438 166.730469 246.234375 177.410156 245.410156 198.632812 C 245.363281 199.457031 245.410156 200.417969 246.003906 200.738281 L 246.050781 200.738281 C 246.1875 200.785156 246.28125 200.832031 246.417969 200.832031 C 247.289062 200.832031 248.34375 199.6875 248.574219 199.457031 L 248.621094 199.410156 L 250.042969 196.292969 C 250.042969 196.660156 250.042969 197.03125 250.089844 197.4375 C 250.179688 197.988281 250.363281 199.730469 251.648438 200.695312 C 251.925781 200.875 252.199219 201.011719 252.566406 201.15625 C 252.566406 201.15625 252.613281 201.195312 252.660156 201.195312 L 252.703125 201.195312 C 253.117188 201.332031 253.53125 201.382812 254.035156 201.382812 C 255.457031 201.382812 257.109375 200.738281 258.441406 199.363281 C 259.265625 200.050781 260.136719 200.417969 260.460938 200.554688 C 262.15625 201.613281 263.992188 202.300781 265.964844 202.480469 C 269.867188 202.9375 272.941406 201.472656 274.546875 200.507812 C 275.785156 201.519531 278.265625 203.125 281.613281 203.304688 L 282.210938 203.304688 C 283.589844 203.304688 286.15625 203.074219 288.453125 201.652344 C 288.5 201.652344 288.542969 201.613281 288.542969 201.613281 C 289.1875 201.195312 289.78125 200.695312 290.332031 200.097656 C 290.929688 199.457031 291.390625 198.675781 291.757812 197.855469 C 293.40625 198.542969 295.242188 198.632812 296.894531 198.175781 C 297.722656 197.945312 298.546875 197.53125 299.28125 197.03125 C 301.714844 195.238281 302.953125 192.03125 302.082031 189.605469 Z M 58.914062 200.605469 C 57.171875 185.800781 54.554688 170.945312 51.066406 156.417969 C 47.578125 141.84375 43.171875 127.367188 37.988281 113.296875 C 37.941406 113.15625 37.804688 113.105469 37.664062 113.15625 C 37.527344 113.199219 37.484375 113.335938 37.527344 113.472656 C 42.714844 127.503906 47.121094 141.980469 50.609375 156.511719 C 54.097656 171.136719 56.757812 186.167969 58.5 201.105469 C 58.042969 201.105469 57.261719 200.46875 56.804688 199.917969 L 54.464844 194.824219 C 54.28125 194.28125 54.050781 193.820312 53.867188 193.40625 C 53.773438 193.175781 53.683594 192.992188 53.589844 192.761719 C 52.71875 190.75 53.085938 189.375 53.5 187.445312 C 53.820312 186.117188 54.1875 184.511719 54.28125 182.273438 C 54.371094 179.75 54.003906 178.605469 53.269531 176.261719 C 52.628906 174.25 51.664062 171.175781 50.515625 165.355469 C 50.058594 163.0625 49.691406 161.28125 49.277344 158.710938 C 48.636719 154.585938 48.5 152.023438 48.40625 150.191406 C 48.265625 147.9375 48.21875 146.84375 47.394531 145.28125 C 45.515625 141.710938 41.015625 138.679688 36.609375 138.503906 C 36.289062 136.992188 34.042969 127.042969 32.757812 123.011719 C 31.378906 118.566406 32.757812 111.042969 38.035156 108.84375 C 38.582031 108.617188 39.132812 108.660156 39.6875 108.984375 C 44.367188 111.691406 48.128906 130.804688 48.453125 133.273438 C 48.820312 135.84375 49.371094 137.855469 50.378906 141.203125 C 50.839844 142.804688 51.433594 144.824219 52.125 147.390625 C 53.179688 151.335938 53.773438 153.261719 54.28125 155.003906 C 54.648438 156.328125 55.015625 157.425781 55.472656 159.167969 C 57.722656 167.507812 58.179688 178.148438 59.007812 199.363281 C 59.007812 199.957031 58.960938 200.324219 58.914062 200.605469 Z M 54.28125 198.175781 C 54.234375 198.675781 54.003906 200.238281 52.949219 201.0625 C 52.765625 201.195312 52.582031 201.292969 52.398438 201.382812 L 47.671875 185.023438 L 53.5 179.195312 C 53.683594 180.113281 53.773438 181.03125 53.730469 182.3125 C 53.636719 184.46875 53.316406 186.03125 52.996094 187.40625 C 52.535156 189.375 52.167969 190.882812 53.085938 193.042969 C 53.179688 193.222656 53.269531 193.449219 53.363281 193.679688 C 53.867188 194.824219 54.554688 196.292969 54.28125 198.175781 Z M 46.9375 199.78125 C 47.441406 199.269531 47.851562 198.675781 48.082031 197.894531 C 48.820312 195.335938 46.9375 193.042969 46.246094 192.167969 C 44.230469 189.738281 41.335938 188.730469 38.8125 188.269531 C 36.886719 186.53125 35.507812 184.5625 34.683594 182.40625 C 33.902344 180.34375 33.765625 178.605469 33.902344 176.949219 L 46.386719 182.40625 L 51.941406 201.519531 C 50.425781 201.882812 48.453125 201.425781 46.9375 199.78125 Z M 44.230469 200.875 C 42.621094 201.882812 40.832031 202.53125 38.953125 202.757812 C 36.566406 203.027344 34.453125 202.570312 32.847656 201.929688 L 37.757812 196.15625 C 40.96875 196.75 44.230469 197.347656 47.394531 198.035156 C 46.753906 199.78125 44.871094 200.644531 44.230469 200.875 Z M 30.554688 200.785156 C 30.460938 200.738281 30.324219 200.738281 30.230469 200.785156 C 29.085938 201.75 26.652344 203.394531 23.300781 203.582031 C 22.339844 203.625 19.496094 203.625 17.015625 202.160156 L 25.503906 194 C 27.066406 194.230469 28.578125 194.507812 30.09375 194.78125 C 32.433594 195.195312 34.820312 195.605469 37.164062 196.023438 L 32.390625 201.75 C 31.65625 201.425781 31.011719 201.0625 30.554688 200.785156 Z M 15.042969 200.554688 C 14.449219 199.867188 13.941406 199.09375 13.574219 198.21875 C 13.53125 198.175781 13.484375 198.082031 13.4375 198.082031 L 13.34375 198.082031 C 13.300781 198.082031 13.253906 198.082031 13.253906 198.125 C 11.785156 198.8125 10.132812 198.949219 8.617188 198.632812 L 14.125 192.355469 C 17.703125 192.855469 21.332031 193.40625 24.910156 194 L 16.605469 201.980469 C 16.054688 201.519531 15.5 201.0625 15.042969 200.554688 Z M 8.066406 198.40625 C 7.335938 198.175781 6.644531 197.804688 6.003906 197.347656 C 3.800781 195.742188 2.699219 192.992188 3.25 190.792969 C 6.691406 191.210938 10.085938 191.667969 13.53125 192.167969 Z M 11.695312 186.574219 C 12.613281 186.53125 13.574219 186.625 14.539062 186.757812 L 18.117188 192.355469 C 16.785156 192.167969 15.457031 191.9375 14.078125 191.757812 L 13.941406 191.757812 C 10.410156 191.25 6.875 190.792969 3.339844 190.332031 C 4.027344 188.730469 6.003906 186.855469 11.695312 186.574219 Z M 18.53125 188.042969 C 18.621094 188.09375 18.714844 188.09375 18.761719 188.042969 C 19.632812 187.492188 21.46875 186.625 23.898438 186.804688 C 24.585938 186.855469 25.230469 186.988281 25.828125 187.21875 L 30.691406 194.367188 C 30.554688 194.320312 30.414062 194.320312 30.277344 194.28125 C 26.515625 193.632812 22.660156 193.042969 18.851562 192.445312 L 15.273438 186.894531 C 16.375 187.175781 17.476562 187.542969 18.53125 188.042969 Z M 39.730469 188.957031 C 41.886719 189.46875 44.183594 190.472656 45.835938 192.445312 C 46.476562 193.222656 48.128906 195.285156 47.625 197.488281 C 46.753906 197.300781 45.925781 197.167969 45.054688 196.980469 Z M 28.945312 189.050781 C 28.992188 189.097656 29.085938 189.148438 29.175781 189.097656 C 30.921875 188.636719 32.757812 188.410156 34.546875 188.460938 C 35.507812 188.460938 37.164062 188.5 39 188.820312 L 44.320312 196.84375 C 42.164062 196.429688 39.960938 196.023438 37.804688 195.605469 L 37.757812 195.605469 C 35.601562 195.195312 33.492188 194.824219 31.378906 194.457031 L 26.652344 187.492188 C 27.707031 188 28.488281 188.636719 28.945312 189.050781 Z M 32.664062 164.667969 L 41.476562 165.492188 L 46.15625 181.761719 L 33.902344 176.40625 C 33.949219 175.898438 34.042969 175.347656 34.085938 174.84375 C 34.363281 172.78125 34.640625 170.625 33.949219 167.925781 C 33.675781 166.550781 33.214844 165.542969 32.664062 164.667969 Z M 50.378906 167.605469 C 51.390625 172.09375 52.167969 174.710938 52.71875 176.492188 C 52.996094 177.320312 53.179688 178.007812 53.363281 178.605469 L 47.488281 184.46875 L 44.320312 173.5625 Z M 44.183594 173.007812 L 38.402344 153.03125 L 46.386719 144.78125 C 46.570312 145.050781 46.707031 145.328125 46.890625 145.605469 C 47.625 147.023438 47.71875 148.128906 47.808594 150.28125 C 47.898438 152.15625 48.039062 154.675781 48.683594 158.847656 C 49.09375 161.417969 49.460938 163.25 49.921875 165.492188 C 50.011719 166 50.148438 166.5 50.242188 166.960938 Z M 30.414062 162.054688 C 29.085938 160.773438 27.847656 159.585938 27.066406 156.925781 C 25.183594 150.511719 27.527344 141.480469 33.398438 139.460938 C 34.316406 139.140625 35.28125 139.003906 36.246094 139.050781 L 36.382812 139.050781 C 40.097656 139.140625 43.953125 141.429688 46.0625 144.324219 L 38.214844 152.429688 L 36.105469 145.191406 C 36.058594 145.050781 35.921875 144.960938 35.785156 145.011719 C 35.648438 145.050781 35.554688 145.191406 35.601562 145.328125 L 41.292969 164.898438 L 32.25 164.070312 C 31.699219 163.34375 31.058594 162.695312 30.414062 162.054688 Z M 55.933594 159.128906 C 55.472656 157.386719 55.105469 156.238281 54.738281 154.953125 C 54.234375 153.210938 53.636719 151.285156 52.582031 147.34375 C 51.894531 144.78125 51.296875 142.761719 50.839844 141.15625 C 49.875 137.855469 49.277344 135.84375 48.957031 133.324219 C 48.589844 130.710938 44.871094 111.503906 39.914062 108.617188 C 39.226562 108.203125 38.492188 108.15625 37.804688 108.433594 C 31.976562 110.816406 30.828125 118.699219 32.207031 123.242188 C 33.398438 127.175781 35.601562 136.710938 36.015625 138.59375 C 35.097656 138.59375 34.132812 138.730469 33.261719 139.050781 C 26.609375 141.292969 24.863281 151.238281 26.5625 157.105469 C 27.386719 159.90625 28.71875 161.1875 30.050781 162.46875 C 30.738281 163.113281 31.378906 163.75 31.929688 164.578125 C 32.574219 165.445312 33.078125 166.550781 33.492188 168.0625 C 34.132812 170.675781 33.855469 172.78125 33.582031 174.800781 C 33.492188 175.398438 33.445312 175.988281 33.351562 176.585938 C 33.167969 178.375 33.214844 180.300781 34.132812 182.59375 C 34.914062 184.605469 36.152344 186.488281 37.851562 188.132812 C 36.472656 187.949219 35.328125 187.949219 34.546875 187.949219 C 32.757812 187.949219 30.921875 188.132812 29.175781 188.59375 C 28.535156 188.042969 27.480469 187.261719 26.011719 186.757812 L 25.964844 186.757812 C 25.324219 186.53125 24.679688 186.398438 23.898438 186.347656 C 21.46875 186.167969 19.539062 186.988281 18.578125 187.582031 C 17.335938 186.988281 16.054688 186.574219 14.722656 186.347656 L 14.675781 186.347656 C 13.664062 186.167969 12.65625 186.070312 11.648438 186.117188 C 6.691406 186.347656 3.707031 187.773438 2.789062 190.382812 C 1.917969 192.8125 3.15625 196.023438 5.636719 197.855469 C 6.371094 198.40625 7.148438 198.769531 8.023438 199 C 9.671875 199.457031 11.507812 199.363281 13.164062 198.675781 C 13.53125 199.5 14.03125 200.238281 14.582031 200.925781 C 15.136719 201.5625 15.730469 202.019531 16.375 202.4375 C 16.417969 202.480469 16.417969 202.480469 16.464844 202.480469 C 18.761719 203.90625 21.332031 204.132812 22.707031 204.132812 L 23.300781 204.132812 C 26.652344 203.945312 29.132812 202.339844 30.371094 201.332031 C 30.875 201.652344 31.519531 201.980469 32.296875 202.300781 C 33.996094 202.988281 36.289062 203.582031 38.953125 203.257812 C 40.878906 203.027344 42.761719 202.386719 44.367188 201.332031 C 44.734375 201.195312 45.605469 200.832031 46.433594 200.097656 C 47.761719 201.519531 49.371094 202.160156 50.792969 202.160156 C 51.296875 202.160156 51.757812 202.070312 52.167969 201.929688 C 52.535156 201.792969 52.859375 201.652344 53.132812 201.425781 C 54.371094 200.507812 54.601562 198.769531 54.691406 198.175781 C 54.738281 197.757812 54.738281 197.394531 54.738281 197.03125 L 56.160156 200.144531 L 56.207031 200.1875 C 56.4375 200.46875 57.492188 201.5625 58.363281 201.5625 C 58.5 201.5625 58.640625 201.519531 58.730469 201.472656 L 58.777344 201.472656 C 59.375 201.15625 59.417969 200.1875 59.375 199.363281 C 58.640625 178.1875 58.226562 167.554688 55.933594 159.125 " fill-opacity="1" fill-rule="nonzero"/></g><path fill="#ffffff" d="M 74.105469 75.296875 L 51.757812 75.296875 L 51.757812 202.339844 L 62.863281 202.339844 L 51.023438 213.25 L 53.867188 216.59375 L 66.53125 207.292969 C 67.449219 205.644531 68.367188 203.992188 69.238281 202.339844 L 69.746094 202.339844 L 69.238281 222.1875 L 74.058594 222.1875 L 78.648438 202.339844 L 223.425781 202.339844 L 228.933594 226.042969 L 233.753906 226.042969 L 233.203125 205.1875 C 234.304688 207.152344 235.40625 209.175781 236.460938 211.144531 L 249.125 220.445312 L 251.96875 217.105469 L 239.121094 205.230469 C 239.167969 204.269531 239.214844 203.355469 239.257812 202.386719 L 249.859375 202.386719 L 249.859375 75.296875 L 74.105469 75.296875 " fill-opacity="1" fill-rule="nonzero"/><path fill="#38b6ff" d="M 100.535156 208.167969 L 100.535156 196.382812 L 173.453125 196.382812 L 173.453125 216.136719 L 173.5 216.136719 L 160.972656 216.136719 L 160.972656 227.914062 L 100.398438 227.914062 M 100.445312 227.914062 L 88.007812 227.914062 L 88.007812 208.167969 L 100.535156 208.167969 " fill-opacity="1" fill-rule="nonzero"/><path fill="#38b6ff" d="M 67.082031 157.105469 L 124.308594 157.105469 L 124.308594 161.367188 L 67.082031 161.367188 Z M 115.496094 111.234375 L 91.359375 111.234375 L 91.359375 108.023438 L 115.496094 108.023438 Z M 126.1875 106.140625 L 91.359375 106.140625 L 91.359375 102.933594 L 126.1875 102.933594 Z M 98.425781 184.835938 C 98.425781 186.757812 96.820312 188.363281 94.890625 188.363281 L 78.140625 188.363281 C 78.140625 187.722656 78.097656 187.085938 77.957031 186.4375 C 77.730469 185.613281 77.5 184.835938 77.269531 184.054688 C 77.085938 183.1875 76.996094 182.3125 76.996094 181.398438 L 76.996094 181.304688 L 94.9375 181.304688 C 96.820312 181.304688 98.425781 182.910156 98.425781 184.835938 Z M 126.464844 188.410156 L 105.355469 188.410156 C 103.609375 188.410156 102.234375 186.988281 102.234375 185.292969 L 102.234375 184.46875 C 102.234375 182.730469 103.65625 181.355469 105.355469 181.355469 L 126.464844 181.355469 C 128.207031 181.355469 129.585938 182.773438 129.585938 184.46875 L 129.585938 185.292969 C 129.628906 186.988281 128.207031 188.410156 126.464844 188.410156 Z M 67.082031 142.210938 L 129.953125 142.210938 L 129.953125 152.480469 L 67.082031 152.480469 Z M 192.40625 164.347656 L 167.214844 146.105469 L 145.003906 175.347656 L 136.605469 119.660156 L 241.738281 104.03125 L 249.8125 147.441406 L 220.535156 126.535156 Z M 245.269531 100.273438 L 133.667969 116.59375 L 143.167969 181.445312 L 254.769531 165.125 L 245.269531 100.273438 " fill-opacity="1" fill-rule="nonzero"/><path fill="#38b6ff" d="M 241.046875 86.890625 L 233.109375 86.890625 C 232.695312 86.890625 232.375 86.574219 232.375 86.160156 C 232.375 85.746094 232.695312 85.429688 233.109375 85.429688 L 241.046875 85.429688 C 241.460938 85.429688 241.78125 85.746094 241.78125 86.160156 C 241.78125 86.574219 241.460938 86.890625 241.046875 86.890625 Z M 241.046875 89.460938 L 233.109375 89.460938 C 232.695312 89.460938 232.375 89.136719 232.375 88.726562 C 232.375 88.316406 232.695312 87.992188 233.109375 87.992188 L 241.046875 87.992188 C 241.460938 87.992188 241.78125 88.316406 241.78125 88.726562 C 241.78125 89.136719 241.460938 89.460938 241.046875 89.460938 Z M 241.046875 91.984375 L 233.109375 91.984375 C 232.695312 91.984375 232.375 91.65625 232.375 91.246094 C 232.375 90.835938 232.695312 90.511719 233.109375 90.511719 L 241.046875 90.511719 C 241.460938 90.511719 241.78125 90.835938 241.78125 91.246094 C 241.78125 91.65625 241.460938 91.984375 241.046875 91.984375 Z M 227.742188 89.503906 C 227.742188 91.015625 226.5 92.253906 224.988281 92.253906 L 78.28125 92.253906 C 76.765625 92.253906 75.527344 91.015625 75.527344 89.503906 L 75.527344 86.941406 C 75.527344 85.429688 76.765625 84.191406 78.28125 84.191406 L 225.035156 84.191406 C 226.546875 84.191406 227.785156 85.429688 227.785156 86.941406 Z M 51.757812 82.171875 L 51.757812 94.824219 L 249.859375 94.824219 L 249.859375 82.171875 L 51.757812 82.171875 " fill-opacity="1" fill-rule="nonzero"/><path fill="#38b6ff" d="M 81.402344 167.238281 L 97.09375 169.570312 L 97.09375 167.648438 L 85.714844 163.574219 L 76.351562 154.773438 L 64.007812 152.84375 C 62.90625 152.84375 59.511719 152.660156 56.34375 150.140625 C 52.261719 146.84375 51.847656 142.117188 51.800781 141.34375 L 50.289062 141.34375 C 50.058594 143.035156 49.828125 146.566406 51.390625 150.550781 C 52.628906 153.761719 54.507812 155.867188 55.703125 157.015625 Z M 221.683594 171.085938 L 205.988281 173.425781 L 205.988281 171.5 L 217.371094 167.417969 L 226.730469 158.617188 L 239.074219 156.699219 C 240.175781 156.699219 243.574219 156.511719 246.738281 153.988281 C 250.824219 150.6875 251.234375 145.96875 251.28125 145.191406 L 252.886719 145.191406 C 253.117188 146.886719 253.347656 150.417969 251.785156 154.40625 C 250.546875 157.613281 248.667969 159.71875 247.472656 160.863281 L 221.683594 171.085938 " fill-opacity="1" fill-rule="nonzero"/><path fill="#ffffff" d="M 96.773438 169.4375 C 97.554688 169.617188 98.699219 169.847656 100.078125 169.9375 C 101.914062 170.078125 104.023438 169.988281 104.070312 169.761719 C 104.070312 169.617188 103.242188 169.34375 99.207031 168.84375 C 100.078125 168.242188 100.492188 167.785156 100.398438 167.554688 C 100.261719 167.1875 99.066406 167.1875 96.773438 167.554688 Z M 51.527344 141.203125 C 52.078125 138.503906 52.261719 137.078125 51.941406 136.992188 C 51.800781 136.941406 51.574219 137.167969 51.25 137.71875 C 51.25 135.523438 51.113281 135.015625 50.929688 134.96875 C 50.65625 134.929688 50.242188 136.304688 50.058594 137.21875 C 49.691406 138.863281 49.78125 140.238281 49.921875 141.203125 Z M 72.175781 145.238281 C 72.175781 146.566406 74.011719 147.441406 75.800781 148.398438 C 76.582031 146.199219 75.296875 142.300781 75.296875 142.300781 C 73.78125 142.949219 72.175781 144.003906 72.175781 145.238281 Z M 206.3125 171.363281 C 204.0625 170.992188 202.824219 170.992188 202.683594 171.363281 C 202.59375 171.632812 203.007812 172.050781 203.878906 172.648438 C 199.886719 173.148438 199.015625 173.425781 199.015625 173.5625 C 199.015625 173.792969 201.171875 173.886719 203.007812 173.742188 C 204.382812 173.65625 205.53125 173.425781 206.3125 173.238281 Z M 253.164062 145.050781 C 253.300781 144.09375 253.347656 142.71875 253.027344 141.066406 C 252.84375 140.148438 252.429688 138.773438 252.152344 138.824219 C 252.015625 138.824219 251.832031 139.324219 251.832031 141.574219 C 251.511719 141.023438 251.28125 140.792969 251.144531 140.835938 C 250.867188 140.925781 251.007812 142.347656 251.558594 145.050781 Z M 119.214844 48.214844 C 120.269531 46.652344 120.726562 45.78125 120.542969 45.644531 C 120.453125 45.554688 120.175781 45.691406 119.765625 46.015625 C 120.132812 44.269531 120.132812 43.355469 119.902344 43.261719 C 119.535156 43.125 118.664062 44.40625 117.285156 47.070312 Z M 126.875 39.917969 C 129.859375 38.953125 131.28125 38.175781 131.234375 37.671875 C 131.191406 37.347656 130.59375 37.167969 129.402344 37.027344 C 131.832031 35.746094 132.292969 35.285156 132.246094 35.105469 C 132.109375 34.828125 130.136719 35.148438 128.484375 36.066406 C 127.242188 36.753906 126.371094 37.625 125.867188 38.265625 Z M 124.125 70.902344 L 133.027344 75.066406 C 134.128906 74.429688 135.183594 73.785156 136.285156 73.097656 C 135.089844 71.910156 133.300781 70.214844 130.960938 68.328125 C 127.289062 65.441406 125.453125 63.976562 123.113281 63.472656 C 118.25 62.464844 113.660156 65.992188 111.917969 67.503906 L 96.175781 76.351562 L 110.171875 90.378906 L 124.628906 100.960938 L 126.875 98.261719 L 117.929688 86.523438 L 109.898438 73.691406 L 111.640625 76.492188 C 115.726562 74.660156 120.039062 72.734375 124.125 70.902344 Z M 227.785156 146.105469 C 227.785156 146.105469 226.5 150.050781 227.28125 152.203125 C 229.070312 151.238281 230.90625 150.367188 230.90625 149.042969 C 230.90625 147.847656 229.300781 146.792969 227.785156 146.105469 Z M 95.582031 35.332031 C 94.984375 36.246094 94.296875 36.84375 93.789062 37.253906 C 92.917969 37.117188 92.09375 37.574219 91.816406 38.308594 C 91.496094 39.179688 91.953125 40.28125 92.964844 40.648438 C 92.964844 40.878906 93.054688 41.746094 92.414062 42.527344 C 91.953125 43.074219 91.40625 43.304688 91.175781 43.398438 C 91.40625 44.222656 91.679688 45.046875 91.910156 45.871094 C 92.367188 46.011719 93.378906 46.28125 94.664062 46.011719 C 95.671875 45.78125 96.40625 45.320312 96.773438 45 L 96.773438 42.160156 C 97.230469 41.886719 97.875 41.378906 98.378906 40.554688 C 99.574219 38.628906 99.023438 36.386719 98.609375 34.734375 C 98.378906 33.726562 97.875 32.214844 96.726562 30.519531 C 96.820312 31.253906 96.863281 33.316406 95.582031 35.332031 Z M 233.203125 202.386719 L 233.613281 202.386719 L 233.246094 205.230469 Z M 233.203125 202.386719 " fill-opacity="1" fill-rule="nonzero"/><g clip-path="url(#4e86498d16)"><path fill="#0f0e0c" d="M 124.03125 102.296875 L 89.753906 102.296875 L 89.753906 104.996094 L 124.03125 104.996094 Z M 124.535156 105.503906 L 89.203125 105.503906 L 89.203125 101.742188 L 124.535156 101.742188 Z M 254.496094 164.898438 L 252.75 153.117188 C 252.613281 153.578125 252.476562 154.035156 252.292969 154.492188 C 251.328125 156.925781 249.8125 159.21875 247.933594 161.050781 C 248.207031 161.28125 248.4375 161.550781 248.667969 161.875 C 249.402344 162.886719 249.859375 164.210938 249.953125 165.585938 Z M 249.585938 168.015625 C 247.886719 172.597656 240.679688 172.96875 240.453125 176.585938 C 240.222656 179.65625 245.042969 180.847656 244.675781 183.78125 C 244.492188 185.15625 243.25 186.488281 241.644531 187.445312 C 241.644531 187.492188 241.691406 187.492188 241.691406 187.542969 C 241.738281 188.269531 241.738281 189.007812 241.597656 189.695312 C 241.371094 191.25 240.820312 192.761719 239.902344 194.136719 L 239.535156 202.113281 L 249.585938 202.113281 Z M 238.984375 205.417969 C 238.9375 205.367188 238.890625 205.28125 238.890625 205.230469 L 239.441406 194.09375 C 239.441406 194.050781 239.441406 194 239.488281 193.960938 C 240.359375 192.625 240.957031 191.210938 241.140625 189.695312 C 241.230469 189.050781 241.230469 188.410156 241.230469 187.773438 C 239.488281 188.6875 237.378906 189.097656 235.726562 188.636719 C 235.953125 189.324219 236.136719 190.292969 235.910156 191.480469 C 235.679688 192.625 235.128906 193.449219 234.671875 193.960938 L 233.429688 202.019531 L 233.523438 205.1875 L 236.734375 211.050781 L 249.171875 220.175781 L 251.695312 217.195312 Z M 229.210938 225.8125 L 233.523438 225.8125 L 232.925781 201.929688 L 234.164062 193.769531 C 234.164062 193.730469 234.210938 193.679688 234.210938 193.632812 C 234.625 193.175781 235.128906 192.394531 235.359375 191.34375 C 235.589844 190.195312 235.359375 189.238281 235.128906 188.636719 C 235.082031 188.59375 235.128906 188.5 235.128906 188.460938 C 235.039062 188.410156 234.945312 188.363281 234.855469 188.320312 C 232.511719 187.085938 233.570312 184.375 231 180.847656 C 230.035156 179.523438 228.933594 178.605469 227.832031 177.917969 L 223.472656 201.242188 Z M 206.585938 173.105469 L 222.003906 170.8125 C 222.097656 170.8125 222.1875 170.8125 222.234375 170.90625 C 224.988281 168.242188 230.816406 165.675781 230.449219 162.285156 C 230.265625 160.679688 228.796875 159.675781 227.328125 158.710938 C 227.328125 158.710938 227.328125 158.761719 227.28125 158.761719 L 217.921875 167.554688 C 217.875 167.605469 217.875 167.605469 217.828125 167.605469 L 206.632812 171.632812 L 206.632812 173.105469 Z M 206.035156 173.199219 L 206.035156 171.679688 C 203.28125 171.222656 202.960938 171.542969 202.914062 171.542969 C 202.914062 171.542969 202.960938 171.824219 204.015625 172.550781 C 204.109375 172.597656 204.152344 172.738281 204.109375 172.824219 C 204.0625 172.917969 204.015625 173.007812 203.878906 173.007812 C 201.722656 173.285156 200.527344 173.511719 199.886719 173.605469 C 200.621094 173.65625 201.769531 173.65625 202.960938 173.605469 C 204.015625 173.605469 205.070312 173.425781 206.035156 173.199219 Z M 227.96875 146.472656 C 227.695312 147.34375 227.007812 150.09375 227.464844 151.835938 L 227.601562 151.792969 C 229.210938 150.96875 230.722656 150.140625 230.722656 149.085938 C 230.679688 148.261719 229.714844 147.34375 227.96875 146.472656 Z M 143.398438 181.125 L 198.96875 173.007812 C 199.105469 173.007812 199.242188 173.105469 199.242188 173.238281 L 199.242188 173.335938 C 199.75 173.148438 200.851562 172.96875 203.234375 172.648438 C 202.59375 172.136719 202.363281 171.773438 202.5 171.40625 C 202.640625 170.992188 203.234375 170.71875 206.3125 171.222656 L 217.554688 167.148438 L 226.824219 158.441406 C 225.355469 157.523438 224.070312 156.605469 224.160156 155.324219 C 224.253906 154.085938 225.628906 153.167969 227.144531 152.386719 C 227.097656 152.34375 227.050781 152.34375 227.050781 152.253906 C 226.273438 150 227.464844 146.199219 227.558594 145.96875 C 227.464844 145.925781 227.375 145.878906 227.28125 145.835938 C 227.511719 144.78125 227.785156 143.675781 228.015625 142.628906 C 234.394531 141.941406 237.101562 143.355469 238.339844 144.960938 C 240.820312 148.21875 237.835938 152.941406 239.257812 156.378906 L 239.351562 156.378906 C 240.957031 156.378906 244.03125 156.011719 246.832031 153.71875 C 250.59375 150.6875 251.191406 146.425781 251.28125 145.097656 C 250.546875 141.613281 250.640625 140.886719 250.914062 140.65625 L 247.289062 115.949219 L 235.449219 101.878906 L 140.917969 115.679688 L 136.511719 132.265625 C 136.46875 132.40625 136.375 132.449219 136.285156 132.449219 L 136.238281 132.449219 Z M 136.144531 131.808594 L 140.367188 115.855469 L 133.945312 116.773438 Z M 141.101562 115.261719 L 235.128906 101.511719 L 234.625 100.921875 L 199.058594 75.574219 L 187.359375 75.574219 L 141.378906 114.210938 Z M 187.953125 75.066406 L 198.28125 75.066406 L 194.011719 72.046875 C 193.371094 71.996094 192.820312 71.765625 192.269531 71.449219 Z M 245.085938 100.59375 L 236.136719 101.929688 L 247.242188 115.128906 Z M 199.933594 75.574219 L 234.945312 100.503906 L 234.992188 100.554688 L 235.726562 101.421875 L 245.269531 100.046875 C 245.316406 100.046875 245.40625 100.046875 245.453125 100.097656 C 245.5 100.136719 245.546875 100.183594 245.546875 100.273438 L 247.839844 115.855469 L 249.171875 117.460938 C 249.261719 117.554688 249.261719 117.742188 249.125 117.828125 C 249.035156 117.917969 248.851562 117.917969 248.757812 117.78125 L 247.976562 116.824219 L 249.628906 128.054688 L 249.628906 75.574219 Z M 251.234375 141.292969 C 251.234375 141.613281 251.28125 142.53125 251.742188 144.867188 L 252.886719 144.867188 C 253.027344 143.636719 252.980469 142.398438 252.703125 141.203125 C 252.519531 140.425781 252.292969 139.738281 252.152344 139.367188 C 252.109375 139.648438 252.015625 140.285156 252.0625 141.660156 C 252.0625 141.800781 251.96875 141.890625 251.878906 141.890625 C 251.785156 141.941406 251.648438 141.890625 251.601562 141.753906 C 251.464844 141.574219 251.328125 141.386719 251.234375 141.292969 Z M 247.566406 160.679688 C 249.402344 158.898438 250.867188 156.699219 251.785156 154.316406 C 252.109375 153.4375 252.382812 152.613281 252.566406 151.792969 L 252.566406 151.742188 C 253.164062 149.273438 253.117188 147.023438 252.933594 145.417969 L 251.832031 145.417969 C 251.695312 146.980469 250.960938 151.199219 247.199219 154.175781 C 244.351562 156.46875 241.230469 156.875 239.535156 156.925781 C 239.671875 157.199219 239.855469 157.472656 240.085938 157.703125 C 242.148438 159.992188 245.226562 159.03125 247.566406 160.679688 C 247.519531 160.679688 247.566406 160.679688 247.566406 160.679688 Z M 171.160156 199.132812 L 98.746094 199.132812 L 98.746094 206.375 L 159.367188 206.375 C 159.503906 206.375 159.640625 206.511719 159.640625 206.65625 L 159.640625 218.382812 L 171.160156 218.382812 Z M 159.136719 206.925781 L 86.722656 206.925781 L 86.722656 226.175781 L 159.136719 226.175781 Z M 79.609375 197.394531 L 75.25 174.0625 C 74.148438 174.75 73.046875 175.667969 72.085938 177 C 69.515625 180.53125 70.570312 183.1875 68.230469 184.46875 C 68.136719 184.511719 68.046875 184.5625 67.953125 184.605469 C 67.953125 184.65625 68 184.742188 67.953125 184.792969 C 67.726562 185.382812 67.496094 186.347656 67.726562 187.492188 C 67.953125 188.59375 68.460938 189.324219 68.871094 189.785156 C 68.917969 189.835938 68.917969 189.875 68.917969 189.925781 L 70.15625 198.082031 L 70.066406 201.425781 L 70.066406 201.472656 L 69.5625 221.957031 L 73.875 221.957031 Z M 69.5625 201.292969 L 69.652344 198.082031 L 68.414062 190.0625 C 67.953125 189.554688 67.40625 188.730469 67.175781 187.582031 C 66.945312 186.4375 67.128906 185.429688 67.359375 184.742188 C 65.707031 185.199219 63.59375 184.792969 61.851562 183.875 C 61.804688 184.511719 61.851562 185.15625 61.945312 185.800781 C 62.171875 187.3125 62.722656 188.730469 63.59375 190.0625 C 63.640625 190.105469 63.640625 190.15625 63.640625 190.195312 L 64.191406 201.332031 C 64.191406 201.425781 64.144531 201.472656 64.101562 201.519531 L 51.34375 213.25 L 53.867188 216.230469 L 66.304688 207.113281 Z M 62.769531 202.113281 L 63.6875 201.242188 L 63.183594 190.292969 C 62.265625 188.917969 61.714844 187.445312 61.484375 185.84375 C 61.394531 185.15625 61.347656 184.425781 61.394531 183.6875 C 61.394531 183.648438 61.394531 183.597656 61.4375 183.597656 C 59.832031 182.632812 58.59375 181.304688 58.410156 179.929688 C 58.042969 177 62.863281 175.804688 62.632812 172.738281 C 62.355469 168.980469 54.601562 168.703125 53.316406 163.523438 C 52.859375 161.597656 53.363281 159.449219 54.417969 157.980469 C 54.648438 157.65625 54.921875 157.386719 55.152344 157.15625 C 53.957031 155.960938 52.902344 154.585938 52.03125 153.117188 L 52.03125 202.070312 L 62.769531 202.070312 Z M 51.296875 150.460938 C 52.214844 152.84375 53.683594 155.042969 55.519531 156.835938 L 55.519531 156.875 C 57.859375 155.230469 60.933594 156.148438 62.953125 153.898438 C 63.183594 153.667969 63.367188 153.398438 63.503906 153.117188 C 61.804688 153.074219 58.683594 152.660156 55.839844 150.367188 C 52.125 147.390625 51.390625 143.175781 51.207031 141.613281 L 50.105469 141.613281 C 49.921875 143.722656 49.921875 146.929688 51.296875 150.460938 Z M 50.148438 141.066406 L 51.296875 141.066406 C 51.800781 138.679688 51.847656 137.816406 51.800781 137.488281 C 51.710938 137.585938 51.617188 137.71875 51.480469 137.992188 C 51.433594 138.085938 51.296875 138.136719 51.207031 138.136719 C 51.113281 138.085938 51.023438 137.992188 51.023438 137.90625 C 51.023438 136.574219 50.976562 135.929688 50.929688 135.617188 C 50.746094 135.980469 50.515625 136.667969 50.378906 137.449219 C 50.105469 138.59375 50.011719 139.828125 50.148438 141.066406 Z M 51.527344 136.898438 L 51.527344 137.03125 L 51.574219 136.992188 C 51.527344 136.992188 51.527344 136.941406 51.527344 136.898438 Z M 75.113281 142.628906 C 73.324219 143.492188 72.40625 144.410156 72.40625 145.238281 C 72.40625 146.292969 73.921875 147.113281 75.527344 147.941406 L 75.664062 147.988281 C 76.078125 146.242188 75.390625 143.492188 75.113281 142.628906 Z M 75.847656 154.90625 C 74.378906 155.867188 72.910156 156.875 72.726562 158.480469 C 72.359375 161.828125 78.1875 164.398438 80.941406 167.097656 C 80.988281 167.050781 81.078125 167.011719 81.171875 167.011719 L 96.589844 169.300781 L 96.589844 167.875 L 85.394531 163.84375 C 85.347656 163.84375 85.347656 163.800781 85.300781 163.800781 L 75.941406 155.003906 C 75.847656 154.953125 75.847656 154.90625 75.847656 154.90625 Z M 97.046875 167.875 L 97.046875 169.390625 C 98.058594 169.617188 99.066406 169.761719 100.125 169.847656 C 101.316406 169.9375 102.464844 169.9375 103.199219 169.847656 C 102.554688 169.710938 101.410156 169.53125 99.207031 169.25 C 99.113281 169.25 99.023438 169.160156 98.976562 169.074219 C 98.929688 168.980469 98.976562 168.84375 99.066406 168.792969 C 100.125 168.0625 100.167969 167.785156 100.167969 167.785156 C 100.125 167.699219 99.800781 167.417969 97.046875 167.875 Z M 77.636719 184.105469 L 78.875 190.65625 L 92.183594 190.65625 C 93.972656 190.65625 95.488281 189.1875 95.488281 187.355469 C 95.488281 185.519531 94.019531 184.054688 92.183594 184.054688 L 77.636719 184.054688 Z M 133.210938 75.066406 Z M 114.945312 75.066406 L 132.886719 75.066406 L 124.125 70.941406 Z M 194.609375 5.953125 C 194.609375 3.019531 192.222656 0.636719 189.285156 0.636719 C 188.230469 0.636719 187.175781 0.957031 186.304688 1.554688 C 184.835938 2.5625 183.960938 4.167969 183.960938 5.953125 C 183.960938 8.886719 186.347656 11.269531 189.285156 11.269531 C 192.222656 11.269531 194.609375 8.886719 194.609375 5.953125 Z M 255.042969 165.085938 C 255.042969 165.21875 254.953125 165.355469 254.816406 165.355469 L 250.132812 166.042969 L 250.132812 202.339844 C 250.132812 202.480469 249.996094 202.617188 249.859375 202.617188 L 239.535156 202.617188 L 239.398438 205.089844 L 252.246094 216.917969 C 252.335938 217.007812 252.335938 217.195312 252.246094 217.28125 L 252.199219 217.332031 L 253.898438 219.34375 C 250.457031 224.84375 248.4375 227.457031 247.792969 227.1875 C 247.289062 226.957031 247.703125 224.800781 249.078125 220.71875 C 249.035156 220.71875 249.035156 220.71875 248.988281 220.675781 L 236.320312 211.375 C 236.277344 211.375 236.277344 211.324219 236.230469 211.277344 L 233.476562 206.238281 L 233.980469 226.042969 C 233.980469 226.132812 233.9375 226.175781 233.890625 226.21875 C 233.84375 226.269531 233.753906 226.3125 233.707031 226.3125 L 233.660156 226.3125 L 233.15625 228.792969 C 225.585938 229.382812 221.730469 229.382812 221.636719 228.792969 C 221.546875 228.28125 223.886719 227.417969 228.660156 226.132812 L 223.289062 202.617188 L 171.710938 202.617188 L 171.710938 218.613281 C 171.710938 218.75 171.574219 218.886719 171.433594 218.886719 L 159.640625 218.886719 L 159.640625 226.402344 C 159.640625 226.539062 159.503906 226.679688 159.367188 226.679688 L 86.449219 226.679688 C 86.3125 226.679688 86.171875 226.539062 86.171875 226.402344 L 86.171875 206.65625 C 86.171875 206.511719 86.3125 206.375 86.449219 206.375 L 98.242188 206.375 L 98.242188 202.617188 L 78.921875 202.617188 L 74.378906 222.277344 C 79.105469 223.5625 81.445312 224.4375 81.402344 224.9375 C 81.308594 225.53125 77.453125 225.53125 69.882812 224.9375 L 69.378906 222.464844 L 69.332031 222.464844 C 69.238281 222.464844 69.195312 222.414062 69.148438 222.375 C 69.101562 222.324219 69.054688 222.238281 69.054688 222.1875 L 69.5625 202.386719 L 66.808594 207.429688 C 66.808594 207.480469 66.761719 207.480469 66.714844 207.519531 L 54.050781 216.824219 C 54.050781 216.824219 54.003906 216.824219 53.957031 216.875 C 55.335938 220.949219 55.75 223.101562 55.242188 223.332031 C 54.648438 223.652344 52.582031 221.042969 49.140625 215.5 L 50.839844 213.480469 L 50.792969 213.4375 C 50.699219 213.339844 50.699219 213.15625 50.792969 213.070312 L 62.128906 202.617188 L 51.710938 202.617188 C 51.574219 202.617188 51.433594 202.480469 51.433594 202.339844 L 51.433594 153.03125 C 51.433594 152.890625 51.574219 152.75 51.710938 152.75 L 51.757812 152.75 C 51.390625 152.0625 51.023438 151.335938 50.746094 150.597656 C 49.277344 146.886719 49.324219 143.492188 49.597656 141.292969 C 49.414062 139.917969 49.460938 138.59375 49.78125 137.261719 C 50.332031 134.738281 50.792969 134.785156 50.929688 134.835938 C 51.207031 134.878906 51.390625 135.066406 51.433594 136.800781 L 51.433594 75.296875 C 51.433594 75.160156 51.574219 75.027344 51.710938 75.027344 L 94.480469 75.027344 C 94.617188 75.027344 94.753906 75.160156 94.753906 75.296875 C 94.753906 75.433594 94.617188 75.574219 94.480469 75.574219 L 51.984375 75.574219 L 51.984375 136.847656 C 52.351562 136.988281 52.535156 137.398438 51.710938 141.34375 C 51.800781 142.628906 52.398438 146.929688 56.160156 149.960938 C 58.960938 152.203125 62.035156 152.574219 63.640625 152.613281 L 63.734375 152.613281 C 65.15625 149.175781 62.21875 144.460938 64.652344 141.203125 C 65.890625 139.597656 68.597656 138.136719 74.976562 138.863281 C 75.207031 139.917969 75.480469 141.023438 75.710938 142.074219 C 75.617188 142.117188 75.527344 142.167969 75.433594 142.210938 C 75.527344 142.441406 76.71875 146.242188 75.941406 148.488281 C 75.941406 148.535156 75.894531 148.585938 75.847656 148.625 C 77.316406 149.40625 78.691406 150.324219 78.832031 151.566406 C 78.921875 152.84375 77.636719 153.71875 76.167969 154.675781 L 85.4375 163.382812 L 96.679688 167.46875 C 99.800781 166.960938 100.351562 167.238281 100.492188 167.648438 C 100.628906 167.96875 100.398438 168.335938 99.757812 168.882812 C 104.253906 169.480469 104.207031 169.710938 104.207031 169.988281 C 104.207031 170.257812 103.933594 170.398438 102.648438 170.449219 L 101.683594 170.449219 C 101.085938 170.449219 100.492188 170.449219 99.941406 170.398438 C 98.839844 170.304688 97.691406 170.167969 96.589844 169.898438 L 81.21875 167.605469 C 81.90625 168.386719 82.273438 169.160156 82.136719 169.9375 C 81.8125 171.960938 78.691406 172.050781 75.574219 173.835938 C 75.574219 173.886719 75.617188 173.886719 75.617188 173.925781 L 77.453125 183.648438 L 92.09375 183.648438 C 94.203125 183.648438 95.902344 185.34375 95.902344 187.445312 C 95.902344 189.554688 94.203125 191.25 92.09375 191.25 L 78.875 191.25 L 80.023438 197.394531 L 80.023438 197.488281 L 78.921875 202.160156 L 98.105469 202.160156 L 98.105469 198.949219 C 98.105469 198.8125 98.242188 198.675781 98.378906 198.675781 L 171.433594 198.675781 C 171.574219 198.675781 171.710938 198.8125 171.710938 198.949219 L 171.710938 202.160156 L 223.199219 202.160156 L 223.015625 201.332031 L 223.015625 201.242188 L 227.417969 177.78125 C 227.417969 177.730469 227.417969 177.730469 227.464844 177.6875 C 224.34375 175.898438 221.226562 175.804688 220.902344 173.792969 C 220.765625 172.96875 221.132812 172.1875 221.820312 171.449219 L 206.449219 173.742188 C 205.347656 174.023438 204.246094 174.15625 203.097656 174.25 C 202.640625 174.292969 201.953125 174.292969 201.308594 174.292969 C 200.253906 174.292969 199.199219 174.25 198.96875 174.023438 C 198.921875 173.972656 198.875 173.886719 198.875 173.792969 C 198.875 173.742188 198.875 173.65625 198.921875 173.605469 L 143.304688 181.71875 L 143.257812 181.71875 C 143.214844 181.71875 143.167969 181.71875 143.121094 181.675781 C 143.074219 181.625 143.03125 181.585938 143.03125 181.488281 L 133.804688 119.203125 L 68.320312 119.203125 C 68.183594 119.203125 68.046875 119.066406 68.046875 118.929688 C 68.046875 118.796875 68.183594 118.65625 68.320312 118.65625 L 133.714844 118.65625 L 133.394531 116.59375 C 133.394531 116.453125 133.484375 116.316406 133.621094 116.316406 L 140.550781 115.308594 L 140.917969 113.984375 C 140.917969 113.933594 140.964844 113.886719 141.011719 113.84375 L 186.578125 75.574219 L 144.359375 75.574219 C 144.316406 75.574219 144.269531 75.574219 144.269531 75.523438 C 143.671875 76.035156 140.277344 76.210938 134.128906 76.074219 L 133.621094 75.484375 C 133.578125 75.523438 133.53125 75.523438 133.484375 75.523438 L 113.84375 75.523438 L 112.101562 76.304688 L 118.203125 86.117188 L 127.152344 97.84375 L 127.152344 97.890625 C 130.683594 95.972656 132.660156 95.234375 132.980469 95.691406 C 133.394531 96.242188 131.375 98.671875 126.921875 102.84375 L 124.859375 100.871094 C 124.8125 100.921875 124.71875 100.960938 124.675781 100.960938 C 124.628906 100.960938 124.582031 100.960938 124.535156 100.921875 L 110.082031 90.28125 L 96.039062 76.261719 C 95.949219 76.171875 95.949219 75.984375 96.039062 75.890625 C 96.132812 75.804688 96.316406 75.804688 96.40625 75.890625 L 110.402344 89.921875 L 124.628906 100.367188 L 126.601562 98.035156 L 117.746094 86.433594 L 109.714844 73.554688 C 109.621094 73.421875 109.667969 73.285156 109.804688 73.191406 C 109.945312 73.097656 110.082031 73.140625 110.171875 73.285156 L 111.824219 75.890625 C 111.824219 75.890625 111.871094 75.847656 111.917969 75.847656 L 113.707031 75.066406 L 124.125 70.390625 C 124.214844 70.347656 124.261719 70.347656 124.351562 70.390625 L 133.164062 74.515625 L 136.007812 72.824219 C 134.402344 71.222656 132.703125 69.703125 130.960938 68.328125 C 127.335938 65.441406 125.5 64.027344 123.25 63.515625 C 118.753906 62.554688 114.441406 65.628906 112.285156 67.503906 C 112.191406 67.597656 112.007812 67.597656 111.917969 67.464844 C 111.824219 67.367188 111.824219 67.183594 111.960938 67.097656 C 114.210938 65.121094 118.707031 62.003906 123.390625 62.972656 C 125.773438 63.472656 127.609375 64.941406 131.328125 67.871094 C 133.210938 69.339844 135 70.941406 136.652344 72.636719 C 136.695312 72.683594 136.742188 72.777344 136.742188 72.867188 C 141.148438 73.785156 143.671875 74.515625 144.359375 75.066406 C 144.40625 75.027344 144.453125 74.976562 144.542969 74.976562 L 187.40625 74.976562 L 192.132812 70.992188 C 191.902344 70.804688 191.671875 70.574219 191.488281 70.347656 C 190.707031 69.339844 190.480469 67.964844 190.890625 66.777344 C 191.214844 65.859375 191.855469 65.214844 192.453125 64.714844 C 192.726562 64.433594 193.003906 64.203125 193.230469 63.929688 C 193.828125 63.152344 194.195312 62.140625 194.289062 61.046875 L 194.289062 60.996094 C 192.269531 60.628906 190.753906 58.886719 190.753906 56.785156 C 190.753906 54.492188 192.589844 52.609375 194.839844 52.519531 L 194.839844 8.339844 C 193.921875 10.355469 191.902344 11.777344 189.515625 11.777344 C 186.304688 11.777344 183.6875 9.164062 183.6875 5.953125 C 183.6875 4.808594 184.007812 3.753906 184.605469 2.839844 L 132.199219 35.609375 C 131.878906 35.882812 131.28125 36.25 130.179688 36.847656 C 131.007812 37.027344 131.375 37.257812 131.464844 37.625 C 131.558594 38.128906 131.050781 38.769531 127.015625 40.144531 L 120.863281 45.738281 C 120.863281 46.054688 120.542969 46.703125 119.441406 48.347656 C 119.398438 48.445312 119.304688 48.445312 119.214844 48.445312 C 119.167969 48.445312 119.121094 48.445312 119.074219 48.394531 C 118.9375 48.304688 118.9375 48.164062 119.03125 48.027344 C 119.808594 46.878906 120.132812 46.285156 120.269531 45.964844 C 120.175781 46.015625 120.085938 46.101562 119.949219 46.191406 C 119.855469 46.242188 119.765625 46.285156 119.671875 46.191406 C 119.582031 46.152344 119.535156 46.015625 119.535156 45.921875 C 119.855469 44.222656 119.855469 43.675781 119.808594 43.492188 C 119.625 43.628906 119.03125 44.269531 117.515625 47.109375 C 117.46875 47.246094 117.285156 47.296875 117.148438 47.203125 C 117.011719 47.160156 116.964844 46.972656 117.054688 46.839844 C 119.121094 42.941406 119.625 42.757812 119.992188 42.894531 C 120.316406 43.03125 120.5 43.492188 120.132812 45.324219 C 120.269531 45.277344 120.359375 45.234375 120.496094 45.234375 L 126.691406 39.59375 C 126.691406 39.59375 126.738281 39.59375 126.738281 39.550781 C 126.738281 39.550781 126.785156 39.550781 126.785156 39.503906 C 130.914062 38.128906 130.960938 37.578125 130.960938 37.53125 C 130.960938 37.53125 130.867188 37.257812 129.355469 37.074219 C 129.261719 37.074219 129.171875 36.984375 129.125 36.847656 C 129.125 36.753906 129.171875 36.617188 129.261719 36.570312 C 129.492188 36.433594 129.722656 36.339844 129.953125 36.203125 L 131.785156 35.058594 C 131.191406 35.105469 129.859375 35.425781 128.574219 36.113281 C 127.609375 36.660156 126.785156 37.347656 126.050781 38.265625 C 125.957031 38.359375 125.773438 38.402344 125.683594 38.3125 C 125.589844 38.21875 125.546875 38.035156 125.636719 37.945312 C 126.417969 36.984375 127.289062 36.25 128.34375 35.699219 C 129.859375 34.875 131.695312 34.464844 132.246094 34.644531 C 132.292969 34.691406 132.335938 34.691406 132.382812 34.738281 L 185.019531 1.828125 C 185.0625 1.785156 185.15625 1.785156 185.246094 1.785156 C 185.476562 1.554688 185.753906 1.328125 186.027344 1.140625 C 186.992188 0.5 188.136719 0.132812 189.285156 0.132812 C 191.902344 0.132812 194.148438 1.875 194.839844 4.257812 C 194.976562 4.257812 195.113281 4.398438 195.113281 4.535156 L 195.113281 52.609375 C 197.316406 52.796875 199.105469 54.628906 199.105469 56.871094 C 199.105469 58.984375 197.589844 60.71875 195.574219 61.085938 L 195.574219 61.222656 C 195.480469 62.648438 194.976562 64.023438 194.195312 64.980469 C 193.921875 65.347656 193.554688 65.667969 193.230469 65.949219 C 192.726562 66.40625 192.269531 66.816406 192.085938 67.410156 C 191.855469 68.097656 191.992188 68.929688 192.453125 69.523438 C 193.046875 70.304688 194.011719 70.667969 194.976562 70.441406 C 195.984375 70.210938 196.71875 69.425781 196.949219 68.417969 C 197.042969 68.011719 197.453125 67.730469 197.867188 67.824219 C 198.28125 67.917969 198.554688 68.328125 198.464844 68.742188 C 198.097656 70.34375 196.902344 71.585938 195.296875 71.90625 C 195.160156 71.949219 195.023438 71.949219 194.882812 71.996094 L 199.152344 75.023438 L 249.8125 75.023438 C 249.949219 75.023438 250.089844 75.15625 250.089844 75.292969 L 250.089844 129.5625 C 250.089844 129.695312 249.996094 129.832031 249.8125 129.832031 L 251.417969 140.832031 C 251.464844 140.882812 251.464844 140.882812 251.511719 140.925781 C 251.558594 138.960938 251.742188 138.769531 252.0625 138.730469 C 252.476562 138.679688 252.84375 139.507812 253.210938 141.15625 C 253.484375 142.488281 253.53125 143.8125 253.394531 145.1875 C 253.621094 146.882812 253.667969 149.222656 253.070312 151.882812 Z M 80.894531 87.628906 C 80.894531 86.890625 80.300781 86.253906 79.519531 86.253906 C 78.785156 86.253906 78.140625 86.847656 78.140625 87.628906 C 78.140625 88.359375 78.738281 89.003906 79.519531 89.003906 C 80.300781 89.003906 80.894531 88.410156 80.894531 87.628906 Z M 81.402344 87.628906 C 81.402344 87.992188 81.308594 88.316406 81.125 88.585938 L 82.683594 89.871094 C 82.777344 89.960938 82.824219 90.148438 82.730469 90.242188 C 82.683594 90.28125 82.59375 90.328125 82.546875 90.328125 C 82.5 90.328125 82.410156 90.328125 82.363281 90.28125 L 80.804688 89.003906 C 80.484375 89.324219 80.023438 89.503906 79.519531 89.503906 C 78.464844 89.503906 77.636719 88.679688 77.636719 87.628906 C 77.636719 86.574219 78.464844 85.746094 79.519531 85.746094 C 80.574219 85.746094 81.402344 86.617188 81.402344 87.628906 Z M 89.707031 110.035156 L 113.292969 110.035156 L 113.292969 107.335938 L 89.707031 107.335938 Z M 89.203125 106.828125 L 113.84375 106.828125 L 113.84375 110.585938 L 89.203125 110.585938 Z M 98.378906 34.734375 C 98.105469 33.589844 97.644531 32.445312 97.046875 31.390625 C 97.003906 32.488281 96.726562 34.003906 95.808594 35.421875 C 95.304688 36.203125 94.707031 36.84375 93.929688 37.394531 C 93.882812 37.441406 93.789062 37.441406 93.746094 37.441406 C 93.011719 37.300781 92.277344 37.714844 92.046875 38.355469 C 91.910156 38.722656 91.910156 39.136719 92.09375 39.503906 C 92.277344 39.914062 92.644531 40.234375 93.054688 40.371094 C 93.148438 40.417969 93.238281 40.511719 93.238281 40.601562 C 93.285156 40.96875 93.285156 41.839844 92.644531 42.664062 C 92.277344 43.121094 91.863281 43.398438 91.496094 43.535156 L 92.136719 45.644531 C 92.734375 45.824219 93.605469 45.960938 94.617188 45.734375 C 95.304688 45.597656 95.949219 45.277344 96.542969 44.863281 L 96.542969 42.113281 C 96.542969 42.023438 96.589844 41.929688 96.679688 41.886719 C 97.324219 41.472656 97.828125 40.96875 98.195312 40.371094 C 99.296875 38.539062 98.746094 36.339844 98.378906 34.734375 Z M 85.484375 38.128906 C 85.070312 34.460938 87.824219 32.03125 88.101562 31.800781 C 88.421875 29.234375 90.394531 27.3125 92.78125 27.082031 C 94.753906 26.898438 96.679688 27.953125 97.691406 29.785156 C 97.875 30.75 98.011719 31.664062 98.195312 32.628906 C 98.472656 33.316406 98.699219 33.957031 98.882812 34.691406 C 99.296875 36.386719 99.847656 38.675781 98.609375 40.738281 C 98.195312 41.378906 97.691406 41.929688 97.046875 42.34375 L 97.046875 45.046875 C 97.046875 45.136719 97.003906 45.183594 96.957031 45.230469 C 96.316406 45.734375 95.535156 46.097656 94.753906 46.28125 C 94.339844 46.378906 93.929688 46.421875 93.5625 46.421875 C 92.871094 46.421875 92.277344 46.28125 91.863281 46.148438 C 91.773438 46.097656 91.726562 46.054688 91.679688 45.960938 L 91.222656 44.40625 C 88.101562 43.582031 85.851562 41.058594 85.484375 38.128906 Z M 123.390625 184.101562 L 103.058594 184.101562 C 101.269531 184.101562 99.757812 185.566406 99.757812 187.402344 C 99.757812 189.234375 101.226562 190.695312 103.058594 190.695312 L 123.390625 190.695312 C 125.179688 190.695312 126.691406 189.234375 126.691406 187.402344 C 126.691406 185.566406 125.226562 184.101562 123.390625 184.101562 Z M 103.058594 183.59375 L 123.390625 183.59375 C 125.5 183.59375 127.199219 185.289062 127.199219 187.402344 C 127.199219 189.503906 125.5 191.207031 123.390625 191.207031 L 103.058594 191.207031 C 100.949219 191.207031 99.25 189.503906 99.25 187.402344 C 99.25 185.289062 100.949219 183.59375 103.058594 183.59375 Z M 150.832031 218.609375 L 107.191406 218.609375 L 107.191406 219.523438 L 150.875 219.523438 L 150.875 218.609375 Z M 145.875 215.953125 L 107.191406 215.953125 L 107.191406 217.234375 L 145.875 217.234375 Z M 150.832031 213.566406 L 107.191406 213.566406 L 107.191406 214.671875 L 150.832031 214.671875 Z M 96.726562 216.871094 L 92.230469 221.953125 C 92.597656 222.140625 92.964844 222.234375 93.378906 222.234375 L 99.847656 222.234375 C 100.398438 222.234375 100.859375 222.046875 101.269531 221.773438 Z M 91.726562 211.414062 C 91.222656 211.871094 90.855469 212.558594 90.855469 213.296875 L 90.855469 219.753906 C 90.855469 220.578125 91.265625 221.316406 91.910156 221.773438 L 96.5 216.589844 Z M 101.546875 221.546875 C 102.050781 221.085938 102.324219 220.441406 102.324219 219.710938 L 102.324219 213.246094 C 102.324219 212.515625 102.003906 211.828125 101.5 211.371094 L 96.957031 216.503906 Z M 92 211.183594 C 92.414062 210.953125 92.871094 210.777344 93.332031 210.777344 L 99.800781 210.777344 C 100.308594 210.777344 100.765625 210.914062 101.179688 211.183594 L 96.679688 216.277344 L 92 211.183594 " fill-opacity="1" fill-rule="nonzero"/></g><path fill="#38b6ff" d="M 94.664062 46.015625 C 93.421875 46.285156 92.414062 46.054688 91.910156 45.875 C 90.578125 47.890625 89.109375 50.777344 88.46875 54.441406 C 86.449219 65.671875 93.835938 74.515625 95.121094 76.074219 C 96.773438 76.210938 100.398438 76.304688 104.300781 74.378906 C 109.210938 71.996094 111.550781 68.054688 112.328125 66.636719 L 104.484375 57.152344 C 105.585938 57.511719 108.519531 58.339844 111.824219 57.152344 C 117.699219 55.039062 119.167969 48.621094 119.257812 48.214844 L 117.285156 47.109375 C 116.734375 47.847656 114.945312 50.179688 111.6875 51.003906 C 109.761719 51.515625 108.152344 51.285156 107.191406 51.097656 C 109.53125 49.453125 112.101562 47.757812 114.945312 46.054688 C 119.167969 43.582031 123.160156 41.566406 126.875 39.917969 L 125.867188 38.3125 L 96.773438 45.003906 C 96.359375 45.277344 95.671875 45.78125 94.664062 46.015625 Z M 107.007812 132.449219 L 102.097656 137.992188 C 102.464844 138.175781 102.875 138.316406 103.335938 138.316406 L 110.355469 138.316406 C 110.953125 138.316406 111.457031 138.136719 111.917969 137.816406 Z M 101.546875 126.535156 C 100.949219 127.042969 100.582031 127.773438 100.582031 128.597656 L 100.582031 135.617188 C 100.582031 136.53125 101.042969 137.304688 101.730469 137.816406 L 106.683594 132.179688 Z M 112.238281 137.585938 C 112.789062 137.078125 113.109375 136.390625 113.109375 135.617188 L 113.109375 128.597656 C 113.109375 127.773438 112.742188 127.085938 112.191406 126.585938 L 107.28125 132.179688 Z M 107.007812 131.855469 L 111.917969 126.308594 C 111.503906 126.03125 110.953125 125.847656 110.402344 125.847656 L 103.382812 125.847656 C 102.832031 125.847656 102.324219 126.03125 101.914062 126.308594 Z M 90.210938 132.542969 L 85.347656 138.085938 C 85.714844 138.273438 86.128906 138.40625 86.585938 138.40625 L 93.605469 138.40625 C 94.203125 138.40625 94.707031 138.222656 95.167969 137.90625 Z M 84.796875 126.628906 C 84.199219 127.136719 83.832031 127.863281 83.832031 128.691406 L 83.832031 135.703125 C 83.832031 136.617188 84.292969 137.398438 84.980469 137.90625 L 89.9375 132.265625 Z M 95.488281 137.679688 C 96.039062 137.167969 96.359375 136.480469 96.359375 135.703125 L 96.359375 128.691406 C 96.359375 127.863281 95.992188 127.175781 95.441406 126.679688 L 90.53125 132.265625 Z M 90.210938 131.949219 L 95.121094 126.398438 C 94.707031 126.128906 94.15625 125.941406 93.605469 125.941406 L 86.585938 125.941406 C 86.035156 125.941406 85.53125 126.128906 85.117188 126.398438 Z M 73.414062 132.449219 L 68.503906 137.992188 C 68.871094 138.175781 69.285156 138.316406 69.746094 138.316406 L 76.765625 138.316406 C 77.363281 138.316406 77.867188 138.136719 78.324219 137.816406 Z M 68 126.535156 C 67.40625 127.042969 67.039062 127.773438 67.039062 128.597656 L 67.039062 135.617188 C 67.039062 136.53125 67.496094 137.304688 68.183594 137.816406 L 73.140625 132.179688 Z M 78.691406 137.628906 C 79.242188 137.128906 79.566406 136.441406 79.566406 135.65625 L 79.566406 128.648438 C 79.566406 127.824219 79.199219 127.136719 78.648438 126.628906 L 73.691406 132.179688 Z M 73.414062 131.898438 L 78.324219 126.355469 C 77.914062 126.078125 77.363281 125.898438 76.8125 125.898438 L 69.789062 125.898438 C 69.238281 125.898438 68.734375 126.078125 68.320312 126.355469 Z M 76.078125 98.808594 C 71.765625 98.808594 68.320312 102.296875 68.320312 106.554688 C 68.320312 110.816406 71.808594 114.304688 76.078125 114.304688 C 80.34375 114.304688 83.832031 110.816406 83.832031 106.554688 C 83.832031 102.296875 80.390625 98.808594 76.078125 98.808594 Z M 195.941406 127.960938 C 195.941406 132.953125 191.902344 136.992188 186.898438 136.992188 C 181.898438 136.992188 177.859375 132.953125 177.859375 127.960938 C 177.859375 122.960938 181.898438 118.929688 186.898438 118.929688 C 191.902344 118.929688 195.941406 122.960938 195.941406 127.960938 " fill-opacity="1" fill-rule="nonzero"/></svg>